<svg xmlns="http://www.w3.org/2000/svg">

  <symbol id="logo-fairy" viewBox="0 0 1024 818.614">
    <path d="M199.104,186.289c-4.067,0.754-14.513-4.917-9.353-5.858c14.32,9.168,1.535-17.713,3.128-28.334 c3.104-20.665,4.947-41.544,28.621-48.218c12.874-3.631,18.208-11.193,31.497-11.386c8.275-0.119,21.19,19.87,17.957,16.191 c3.762,4.449-3.455,25.743,5.34,29.987c6.06,2.925,0.089-8.65,3.237-8.584c6.891,0.145,2.449,9.364-0.456,10.974 c11.616,0.207,18.551,22.205,3.7,22.408c4.74,7.552,24.455,4.167,20.866-6.578c-1.184,3.69,5.164,13.15-7.195,15.11 c7.464,2.281,21.493,25.344,6.681,27.239c6.702-1.954,7.457-14.291,2.262-17.988c2.522,4.923,1.152,7.63-4.113,8.12 c1.352-0.123,1.782-9.411-4.009-9.868c6.003,7.5-3.749,18.781-11.721,17.925c-6.381-0.687-1.927-9.844,0.518-8.057 c-3.603-1.329-3.007,13.63,4.976,6.292c3.76-3.456,5.269-12.9,0.08-16.076c-14.504-8.876-17.198-1.313-26.952-12.008 c0.097-0.438-18.963,24.915-3.679,17.646c7.979-3.797-4.156,3.45-7.731,1.987c9.495,13.321-3.882,24.361-5.306,18.705 c0.174,0.694,1.783-4.211,3.045-3.904c-1.192,1.809-0.652,3.012,1.623,3.608c5.734-0.319,4.206-14.744-3.369-14.091 c1.653,2.644,1.483,5.179-0.514,7.606c-10.312-24.2-15.762,8.086-4.952,19.952c17.879,19.626,60.322-14.786,76.945-24.083 c59.223-33.126,118.577-81.355,183.745-101.637c16.893,22.666-30.484,87.083-44.863,102.639 c-33.143,35.858-81.164,56.981-128.13,67.373c14.794,2.71,108.143,26.232,85.938,50.883c-24.071,26.724-87.45,26.445-112.868,2.259 c9.467,13.139-18.628,17.708-25.697,16.755c10.312,25.881,9.262,54.172,12.014,81.411c0.854,8.457,2.002,17.675,6.784,24.987 c9.254,14.145,24.472,4.274,36.913,10.68c-1.384,4.768-13.936-0.215-17.166,1.439c4.472,0.115,25.139,7.013,25.388,13.568 c-7.5,8.483-24.259-4.813-33.097-3.803c2.651,2.715,3.966,5.896,3.945,9.542c-1.698,2.815-23.99-18.402-25.459-20.32 c-10.625-13.872-13.124-32.363-18.643-48.511c-6.551-19.168-12.53-37.972-14.225-58.301c-1.767-21.196-21.197-7.786-22.563-30.809 c-0.779-13.112-16.005,7.898-16.901,10.453c-5.74,16.364,16.842,36.878,23.841,50.063c9.629,18.139,12.775,38.624,11.917,58.962 c-0.138,3.272,7.684,35.234,10.497,22.546c-0.165-0.177,3.723,15.84-9.765,8.737c2.516,4.874-12.607,31.101-2.364,31.967 c-7.44,2.696-11.34-8.407-10.999-13.466c-8.481,41.407-29.542,67.75-16.259,111.02c7.769,25.308-19.41,86.322,11.367,100.859 c20.036,9.464,17.354,9.13,20.664,31.494c2.703,18.271,16.874,30.58,9.392,50.205c-8.077,21.183-17.827-11.247-20.421-16.153 c-10.543-19.943-26.711-36.343-34.038-58.074c-4.013,29.587,20.794,78.055-3.46,103.658c-31.187,32.92-22.144-79.913-21.611-90.018 c0.937-17.798,2.32-36.133,1.367-53.948c-1.061-19.814-16.022-36.467-24.185-53.888c-16.792-35.838-25.069-77.5-31.568-114.156 c-2.034,0.688-16.647,0.179-11.382-5.764c1.399,0.514,2.314,1.511,2.748,2.985c4.474-1.502,0.278-10.823,0.309-13.566 c-12.413,4.728-7.174-1.923-9.045-2.775c-1.68,1.354-1.748,2.86-0.206,4.521c3.039-0.779,7.348-86.227,12.067-98.573 c6.435-16.827,16.265-32.493,19.36-50.484c1.462-8.194,1.635-16.413,0.517-24.66c-1.055-7.102-9.411-9.377-7.892-17.367 c-22.86,2.687-25.937,44.354-50.518,14.004c-13.922-17.191-13.34-63.521-34.59-72.388c0.871,1.755,1.079,3.576,0.626,5.462 c-0.255,0.259-12.948-9.383-13.246-9.55c-10.548-5.962-0.024-17.11-1.516-24.732c-2.735-13.972-9.881-28.063-14.727-41.432 c-4.028-11.114-6.561-35.815-15.954-27.499c1.076-5.525-1.015-9.088-6.271-10.689c6.991-0.644,8.84-4.791,5.55-12.438 c7.253,6.824,2.563,7.604,10.896,6.784c-6.122,13.397,10.675,66.729,24.3,88.207c8.167,12.874,23.113,11.78,30.558,29.713 c2.109,5.08,22.868,54.756,32.362,49.728c21.779-11.536-22.881-52.887-25.384-74.688c-7.524-65.522,30.849-1.221,56.677,1.505 c-24.102-29.218-36.127-66.66-40.455-103.839c-2.771-23.84-5.926-88.434,16.359-105.85c2.927-2.287,34.204,105.859,37.347,116.182 c7.743,25.434,17.838,50.096,25.993,75.4c5.665,17.579,34.624,17.018,30.142-3.477c-14.478,11.55-3.525,1.464-6.372,10.999 c0.032-0.034-3.119,0.244-2.735,0.118C188.814,197.868,197.912,187.997,199.104,186.289"/>
    <path d="M962.1,305.34l-1.34-0.669h-1.004c-3.346-3.122-4.908-5.239-4.685-6.357 c-22.083-25.205-51.527-37.81-88.334-37.81c-3.126,0-5.134,1.339-6.022,4.016c-18.518,9.594-36.695,15.058-54.539,16.395 c-4.24,0.225-10.488,1.003-18.738,2.342c-18.068,4.685-43.832,26.213-77.292,64.578c-21.194,24.317-45.954,57.441-74.28,99.377 c5.798,1.562,11.596,2.342,17.398,2.342c20.075,0,36.08-4.963,48.016-14.89c11.929-9.922,18.788-14.89,20.577-14.89 c1.339,0,3.179,0.393,5.521,1.171c2.342,0.784,4.182,1.172,5.521,1.172c1.114,0,4.569-1.34,10.372-4.017l2.343,1.673v2.344 c-31.902,40.15-52.421,72.941-61.566,98.371l-45.84,21.415h-4.685c0.219-6.468,13.604-26.654,40.151-60.563l-2.343-2.677 c4.235-5.799,9.255-13.384,15.059-22.753c0-1.784,0.779-3.347,2.342-4.686c-1.339,0.669-13.164,3.013-35.468,7.026 c-9.149,1.788-19.071,5.243-29.779,10.373c-20.969,33.46-39.147,59.223-54.539,77.292c6.912,20.3,10.372,40.711,10.372,61.231 c0,58.221-21.806,108.017-65.413,149.398c-43.613,41.376-94.639,62.067-153.079,62.067c-55.767,0-98.151-16.62-127.147-49.854 c-28.105-32.121-41.155-76.288-39.147-132.502c-0.893-1.113-6.137-4.685-15.727-10.707c-39.933-24.98-59.893-58.44-59.893-100.38 c0-51.748,27.547-92.683,82.646-122.798c47.063-25.874,98.148-37.476,153.247-34.798c19.406-10.927,45.84-27.658,79.3-50.19 c5.354-4.459,13.494-10.926,24.426-19.406c27.882-20.076,69.147-33.904,123.801-41.49c24.98-3.122,62.57-8.03,112.76-14.723 c15.611-2.227,27.771-3.346,36.472-3.346c8.475,0,21.298,0.115,38.479,0.335c16.949,0,29.664,0,38.143,0 c7.581,0,18.849,0.726,33.795,2.174c14.942,1.453,26.1,2.174,33.46,2.174c1.784,0,2.562,0.785,2.343,2.343 C933.993,258.611,962.1,278.573,962.1,305.34z M337.404,381.964h-13.384c-46.399,0-89.562,12.159-129.49,36.472 c-46.175,28.33-69.262,64.242-69.262,107.74c0,46.844,22.303,80.194,66.919,100.045h2.343c2.008-9.367,4.125-23.531,6.357-42.494 c-9.819-19.852-14.723-38.813-14.723-56.882c0-25.429,9.703-49.631,29.11-72.606c18.288-21.634,40.037-36.583,65.247-44.837 c10.257-3.122,20.411-6.357,30.448-9.704C321.678,395.462,330.488,389.549,337.404,381.964z M286.881,430.815 c-22.977,5.354-43.446,18.737-61.399,40.151c-17.958,21.414-26.936,43.722-26.936,66.92c0,9.593,2.118,20.076,6.357,31.452 c1.558-1.338,2.342-2.896,2.342-4.685c10.038-25.874,15.058-39.817,15.058-41.824c0-2.453-0.282-6.243-0.836-11.377 c-0.559-5.129-0.836-8.92-0.836-11.376h1.673c0.446,5.133,1.784,9.818,4.016,14.053l2.342-1.338 C245.389,480.671,264.797,453.349,286.881,430.815z M566.604,602.463v-23.421c0-10.481-2.344-18.179-7.026-23.087l-0.67,1.004 h-1.004c-67.813,62.904-156.592,94.356-266.34,94.356c-17.849,0-46.733-4.124-86.661-12.38c-0.669-0.67-1.563-1.005-2.677-1.005 h-2.007c0,54.205,12.824,96.249,38.478,126.144c27.437,32.121,67.699,48.184,120.79,48.184c56.658,0,105.341-20.746,146.052-62.235 C546.246,708.532,566.604,659.345,566.604,602.463z M318.333,642.617c-45.729-5.129-82.761-21.858-111.087-50.19l-2.342,6.023 c-1.118,6.472-2.457,16.286-4.016,29.444c1.784,3.125,10.592,6.473,26.434,10.037c14.053,3.126,24.201,4.686,30.448,4.686H318.333z M431.761,608.822h-0.669c-8.699,0-21.582,1.84-38.646,5.521c-17.065,3.681-29.947,5.521-38.646,5.521 c-40.602,0-65.582-9.144-74.951-27.438c-2.007-5.797-5.688-14.272-11.042-25.429c-2.677-4.46-15.727-16.28-39.147-35.469 c-2.901,1.788-6.525,8.647-10.874,20.579c-4.351,11.935-6.525,20.023-6.525,24.258c0,4.241,3.681,10.373,11.042,18.402 c24.76,26.769,64.462,40.151,119.116,40.151C373.317,634.919,403.431,626.22,431.761,608.822z M434.104,476.32v-3.011 c0-11.596-6.691-22.753-20.076-33.46c-16.51-13.384-39.481-20.076-68.927-20.076c-18.293,0-31.567,2.122-39.817,6.357 c-9.818,4.908-24.426,20.578-43.833,47.011c-19.406,26.433-29.109,44.333-29.109,53.702c13.159,15.841,27.657,23.757,43.498,23.757 c2.227,0,5.405-0.78,9.537-2.343c4.125-1.558,7.305-2.342,9.536-2.342c2.453,0,5.406,1.452,8.867,4.35 c3.456,2.901,6.745,4.351,9.872,4.351c2.896,0,8.365-5.573,16.395-16.729c9.589-13.384,14.942-20.521,16.062-21.414 C368.856,495.283,398.188,481.899,434.104,476.32z M267.808,556.959v-0.669c-0.224-1.116-0.669-1.673-1.338-1.673h-0.335 c-0.669,0.223-1.118,0.783-1.338,1.673v0.669l1.338,1.338h0.335L267.808,556.959z M272.827,558.296l-1.673-0.669l-0.669,0.669 l0.669,1.673L272.827,558.296z M535.152,516.472l-12.716-12.381c-10.488,7.812-21.749,18.293-33.795,31.452 c-1.563-0.444-2.342-1.784-2.342-4.015c0-3.347,9.145-13.829,27.437-31.452v-2.344c-12.938-8.475-25.544-12.715-37.81-12.715 c-14.722,23.202-38.034,46.064-69.93,68.594c-23.423,16.511-53.652,25.99-90.677,28.44v18.737l-4.016-2.342v-18.738 c-7.811-2.896-19.856-5.797-36.137-8.699c0,29.444,26.208,44.167,78.631,44.167c34.349,0,68.702-9.254,103.055-27.771 C491.205,568.896,517.304,545.249,535.152,516.472z M312.979,566.998c-0.224-0.22-0.559-1.004-1.003-2.343 c-0.894,5.134-1.339,6.691-1.339,4.685v1.673C312.195,570.569,312.979,569.23,312.979,566.998z M398.636,550.601 c-26.1,8.256-52.087,12.938-77.962,14.054c-2.231,1.787-3.235,4.129-3.011,7.025C362.275,571.68,389.267,564.655,398.636,550.601z M435.776,482.678c-21.637,0-43.386,7.027-65.247,21.08c-21.864,14.053-37.141,31.007-45.84,50.859h3.012 c16.28,0,39.147-5.021,68.593-15.059C422.612,530.641,435.776,511.677,435.776,482.678z M476.932,455.241 c0-14.497-5.468-24.092-16.394-28.774c-11.826-5.13-21.865-11.597-30.114-19.408c-3.126-3.347-8.145-8.03-15.058-14.054 c-10.261-7.36-30.229-11.041-59.892-11.041c-6.472,0-14.612,5.803-24.426,17.398c68.928,6.022,107.517,31.234,115.77,75.62 c2.896,0,7.248,0.224,13.05,0.669c5.799,0.45,10.148,0.669,13.05,0.669c1.114-0.669,1.673-1.892,1.673-3.681 c0-1.784-0.894-2.562-2.677-2.342C475.259,467.844,476.932,462.827,476.932,455.241z M421.723,336.123 c-4.239,1.563-13.551,6.582-27.939,15.057c-14.388,8.48-22.7,13.943-24.928,16.395c9.59,1.788,23.757,5.243,42.494,10.372 C412.909,361.667,416.37,347.725,421.723,336.123z M768.367,283.257l-4.016-2.343c-4.685,0-20.076-1.448-46.175-4.35 c-40.377-4.46-71.719-6.692-94.021-6.692c-43.053,0-100.045,16.285-170.979,48.851c-18.293,8.48-27.438,27.662-27.438,57.551 c0,2.677,0.889,5.02,2.678,7.026c0.888,1.118,7.529,6.138,19.909,15.058c12.38,8.923,18.905,13.442,19.574,13.551 c0.671,0.115,2.009,0.168,4.017,0.168l7.361-0.335c24.31-0.22,50.299-7.028,77.961-20.412c33.01-15.611,49.52-34.014,49.52-55.209 c0-16.061-10.261-24.091-30.781-24.091c-16.956,0-32.792,2.567-47.515,7.696l-6.356,2.007c-0.67,0.669-1.563,1.229-2.678,1.673 h-1.004c18.958-9.813,36.917-14.723,53.87-14.723c25.649,0,38.479,8.365,38.479,25.096c0,5.354-0.785,10.373-2.344,15.057 c8.921-7.581,18.85-20.186,29.779-37.809h1.004c2.009,0,3.013,1.564,3.013,4.685c0,3.57-4.465,11.936-13.385,25.095 c-20.525,30.564-41.045,52.757-61.565,66.586c-24.54,16.51-53.425,24.76-86.661,24.76v6.357c0,2.901,0.277,7.194,0.836,12.881 c0.554,5.688,0.836,9.872,0.836,12.548c35.688-12.046,72.158-19.741,109.414-23.087c3.565-3.347,11.262-13.05,23.087-29.11 c14.498-19.627,33.345-41.042,56.547-64.244c27.883-27.881,49.742-45.055,65.583-51.527c2.008-0.669,5.128-1.558,9.367-2.677 C751.413,291.512,758.774,288.166,768.367,283.257z M438.119,607.484v-0.669c-0.224-1.114-0.669-1.784-1.34-2.009h-0.334 c-0.892,0.45-1.338,1.118-1.338,2.009v0.669l1.338,1.338h0.334L438.119,607.484z M442.803,512.792h-0.669v1.338L442.803,512.792z M486.97,291.956c-4.239,0-7.142,1.339-8.699,4.016L486.97,291.956z M482.285,349.173l-1.338,1.338h-0.335l-1.339-1.338v-1.004 c0.219-1.114,0.67-1.673,1.339-1.673h0.335c0.669,0.225,1.114,0.785,1.338,1.673V349.173z M585.676,447.21h-11.711 c-12.938,0-30.448,2.458-52.531,7.36c-27.661,5.805-41.49,12.604-41.49,20.411c0,2.677,2.009,4.575,6.022,5.688 c2.453,0.45,6.243,1.118,11.377,2.008c2.677,0.669,11.041,4.35,25.095,11.042c8.03-6.468,23.307-14.272,45.841-23.422 c5.799-2.451,9.479-5.909,11.042-10.373h-5.688c-3.796,0-9.034,1.674-15.726,5.02c-6.693,3.346-11.936,5.134-15.728,5.354 c0-4.904,6.133-9.703,18.402-14.389C568.831,453.014,577.196,450.112,585.676,447.21z M490.315,342.816l-1.338,1.338h-0.669 l-1.339-1.338v-0.669c0.446-1.338,0.889-2.008,1.339-2.008h0.334c0.889,0.45,1.45,1.004,1.673,1.673V342.816z M492.658,289.28 c-0.225-1.114-0.67-1.783-1.339-2.008h-0.669c-0.67,0.45-1.119,1.118-1.34,2.008v0.669c0.22,1.339,0.67,2.008,1.34,2.008h0.669 c0.669-0.219,1.114-0.888,1.339-2.008V289.28z M501.357,285.599c-1.117,0-3.234,0.56-6.356,1.673 C497.008,287.272,499.126,286.717,501.357,285.599z M499.016,336.458l-1.339,1.338h-0.669l-1.339-1.338v-0.67 c0.22-1.113,0.67-1.782,1.339-2.007h0.335c0.889,0.45,1.338,1.118,1.338,2.007L499.016,336.458z M505.038,332.443l-1.339,1.338 h-0.334l-1.339-1.338v-0.669c0.219-1.114,0.67-1.783,1.339-2.008h0.334c0.889,0.45,1.339,1.118,1.339,2.008V332.443z M508.05,282.252l-0.67-0.334h-1.003l-1.004,0.334c0.444,0.67,0.889,1.564,1.338,2.677L508.05,282.252z M509.054,330.101 l-1.339,1.338h-0.335l-1.338-1.338v-0.669c0.219-1.114,0.669-1.783,1.338-2.008h0.335c0.669,0.45,1.115,1.118,1.339,2.008V330.101z M514.072,326.42l-0.335,1.004h-1.338l-1.005-0.669l2.009-2.008l0.669,1.339V326.42z M513.737,281.249v-0.669l-0.334-0.334h-0.669 l-0.335,0.334v0.334l0.669,1.674L513.737,281.249z M521.768,279.576v-0.669c-0.223-1.114-0.669-1.673-1.338-1.673h-0.335 c-0.892,0.225-1.452,0.784-1.673,1.673v0.669l1.339,1.338h0.669L521.768,279.576z M564.262,481.34v-2.678 c-11.6,3.347-22.641,9.704-33.125,19.071v2.344c3.565,3.57,7.026,6.247,10.373,8.029c1.784-1.783,4.686-4.459,8.699-8.029 C553.331,495.842,558.015,489.593,564.262,481.34z"/>
    <path d="M854.693,581.384c-26.099,26.1-44.502,43.163-55.209,51.193c-23.87,17.849-46.734,26.768-68.593,26.768 c-10.707,0-21.305-3.012-31.786-9.033c-14.054-8.03-21.08-15.501-21.08-22.419c0-23.864,0.784-38.587,2.342-44.167 c2.677-4.904,5.798-10.707,9.369-17.397c1.113-2.228,2.786-5.688,5.019-10.373c9.369-18.737,25.932-35.635,49.689-50.691 c23.757-15.059,46.006-22.586,66.751-22.586h14.389c5.573,0.45,10.257,4.025,14.054,10.729c3.12,5.595,4.686,11.517,4.686,17.775 c0,24.363-15.393,45.04-46.176,62.029c-15.617,8.723-41.715,18.555-78.296,29.509c-2.677,6.932-4.017,13.75-4.017,20.452 c0,11.628,7.361,17.437,22.085,17.437c19.851,0,40.485-6.504,61.899-19.516c8.474-5.388,25.983-18.62,52.532-39.709H854.693 L854.693,581.384z M817.553,526.175c0-1.114-0.115-2.51-0.334-4.183c-0.226-1.673-0.335-2.954-0.335-3.848 c-1.788-1.558-5.021-2.343-9.703-2.343c-6.473,0-11.711,1.339-15.727,4.016c-24.54,16.062-44.168,36.586-58.891,61.566v5.354 c12.935,0,29.999-6.912,51.194-20.745C806.286,551.27,817.553,538.002,817.553,526.175z M782.755,640.274v-4.686 c-6.023,0-14.389,2.008-25.097,6.023c-16.285,5.803-24.65,8.814-25.095,9.034v4.685 C746.169,655.331,762.897,650.312,782.755,640.274z M827.926,499.409c0-4.235-2.457-8.477-7.361-12.716h-10.038 c-10.038,0-21.864,4.351-35.468,13.05c-14.722,9.368-22.083,18.627-22.083,27.771l4.685-0.669 c22.972-10.257,45.614-16.506,67.924-18.737C827.141,506.325,827.926,503.423,827.926,499.409z"/>
    <path d="M1024,581.384c-26.099,26.1-44.502,43.163-55.209,51.193c-23.87,17.849-46.734,26.768-68.593,26.768 c-10.707,0-21.305-3.012-31.786-9.033c-14.055-8.03-21.08-15.501-21.08-22.419c0-23.864,0.784-38.587,2.342-44.167 c2.678-4.904,5.798-10.707,9.369-17.397c1.113-2.228,2.785-5.688,5.02-10.373c9.368-18.737,25.931-35.635,49.688-50.691 c23.758-15.059,46.007-22.586,66.752-22.586h14.389c5.574,0.45,10.257,4.025,14.054,10.729c3.119,5.595,4.685,11.517,4.685,17.775 c0,24.363-15.392,45.04-46.175,62.029c-15.617,8.723-41.715,18.555-78.296,29.509c-2.678,6.932-4.017,13.75-4.017,20.452 c0,11.628,7.361,17.437,22.084,17.437c19.851,0,40.486-6.504,61.9-19.516c8.474-5.388,25.983-18.62,52.532-39.709H1024 L1024,581.384z M986.859,526.175c0-1.114-0.115-2.51-0.334-4.183c-0.226-1.673-0.335-2.954-0.335-3.848 c-1.788-1.558-5.021-2.343-9.703-2.343c-6.473,0-11.711,1.339-15.728,4.016c-24.539,16.062-44.167,36.586-58.89,61.566v5.354 c12.935,0,29.999-6.912,51.192-20.745C975.593,551.27,986.859,538.002,986.859,526.175z M952.062,640.274v-4.686 c-6.022,0-14.389,2.008-25.096,6.023c-16.286,5.803-24.651,8.814-25.096,9.034v4.685 C915.476,655.331,932.205,650.312,952.062,640.274z M997.232,499.409c0-4.235-2.457-8.477-7.361-12.716h-10.038 c-10.038,0-21.864,4.351-35.468,13.05c-14.722,9.368-22.083,18.627-22.083,27.771l4.685-0.669 c22.972-10.257,45.614-16.506,67.924-18.737C996.448,506.325,997.232,503.423,997.232,499.409z"/>
  </symbol>

</svg>
