<?xml version="1.0" encoding="utf-8"?>
<!-- Generator: Adobe Illustrator 14.0.0, SVG Export Plug-In . SVG Version: 6.00 Build 43363)  -->
<!DOCTYPE svg PUBLIC "-//W3C//DTD SVG 1.1//EN" "http://www.w3.org/Graphics/SVG/1.1/DTD/svg11.dtd">
<svg version="1.1" id="Ebene_1" xmlns="http://www.w3.org/2000/svg" xmlns:xlink="http://www.w3.org/1999/xlink" x="0px" y="0px"
	 width="897.063px" height="716.443px" viewBox="0 0 897.063 716.443" enable-background="new 0 0 897.063 716.443"
	 xml:space="preserve">
<path fill-rule="evenodd" clip-rule="evenodd" fill="#3D5967" d="M174.33,163.112c-3.561,0.66-12.707-4.306-8.189-5.13
	c12.538,8.028,1.344-15.509,2.739-24.809c2.717-18.094,4.331-36.375,25.06-42.219c11.272-3.179,15.942-9.8,27.578-9.969
	c7.246-0.104,18.554,17.398,15.723,14.177c3.294,3.895-3.025,22.54,4.676,26.256c5.306,2.561,0.078-7.574,2.834-7.516
	c6.033,0.127,2.144,8.199-0.399,9.609c10.171,0.181,16.243,19.442,3.24,19.62c4.15,6.612,21.412,3.649,18.27-5.76
	c-1.037,3.231,4.521,11.515-6.3,13.23c6.535,1.997,18.819,22.191,5.85,23.85c5.868-1.711,6.529-12.513,1.98-15.75
	c2.209,4.311,1.009,6.681-3.601,7.11c1.184-0.108,1.56-8.24-3.51-8.64c5.256,6.567-3.282,16.444-10.263,15.694
	c-5.587-0.601-1.687-8.619,0.453-7.054c-3.154-1.163-2.632,11.934,4.357,5.51c3.292-3.026,4.613-11.295,0.07-14.076
	c-12.7-7.772-15.058-1.149-23.598-10.514c0.085-0.384-16.604,21.815-3.222,15.45c6.987-3.324-3.639,3.021-6.769,1.74
	c8.314,11.664-3.399,21.33-4.646,16.378c0.153,0.607,1.561-3.687,2.666-3.418c-1.044,1.584-0.571,2.637,1.421,3.159
	c5.021-0.279,3.682-12.909-2.95-12.338c1.447,2.315,1.298,4.535-0.45,6.66c-9.029-21.189-13.801,7.08-4.336,17.469
	c15.655,17.184,52.817-12.946,67.372-21.087c51.855-29.005,103.824-71.233,160.884-88.992c14.79,19.846-26.692,76.248-39.282,89.869
	c-29.019,31.397-71.065,49.892-112.188,58.991c12.954,2.373,94.688,22.968,75.246,44.552c-21.076,23.399-76.57,23.155-98.826,1.978
	c8.289,11.504-16.31,15.505-22.5,14.67c9.029,22.661,8.11,47.432,10.519,71.282c0.748,7.404,1.753,15.475,5.94,21.877
	c8.103,12.385,21.428,3.744,32.321,9.352c-1.212,4.174-12.202-0.188-15.03,1.26c3.915,0.102,22.011,6.141,22.229,11.881
	c-6.567,7.428-21.241-4.215-28.979-3.33c2.321,2.377,3.473,5.162,3.455,8.355c-1.487,2.465-21.006-16.113-22.292-17.793
	c-9.303-12.145-11.491-28.336-16.324-42.475c-5.736-16.783-10.971-33.247-12.455-51.047c-1.547-18.559-18.56-6.817-19.756-26.976
	c-0.682-11.48-14.014,6.916-14.798,9.153c-5.026,14.328,14.747,32.29,20.875,43.834c8.431,15.882,11.186,33.818,10.434,51.627
	c-0.121,2.865,6.728,30.85,9.191,19.74c-0.145-0.154,3.26,13.869-8.55,7.65c2.203,4.268-11.038,27.232-2.07,27.99
	c-6.514,2.361-9.929-7.361-9.63-11.791c-7.426,36.256-25.866,59.322-14.236,97.207c6.802,22.16-16.995,75.582,9.953,88.311
	c17.543,8.287,15.195,7.994,18.093,27.576c2.367,15.998,14.775,26.775,8.223,43.959c-7.072,18.547-15.609-9.848-17.88-14.143
	c-9.232-17.463-23.388-31.822-29.803-50.85c-3.514,25.906,18.207,68.344-3.03,90.762c-27.306,28.824-19.388-69.971-18.922-78.818
	c0.82-15.584,2.032-31.637,1.197-47.236c-0.929-17.35-14.029-31.93-21.176-47.184c-14.702-31.379-21.95-67.857-27.64-99.953
	c-1.781,0.602-14.576,0.156-9.966-5.047c1.225,0.451,2.026,1.324,2.406,2.615c3.917-1.316,0.243-9.477,0.27-11.879
	c-10.868,4.139-6.281-1.684-7.92-2.43c-1.471,1.184-1.53,2.504-0.18,3.959c2.661-0.682,6.434-75.499,10.566-86.308
	c5.634-14.734,14.241-28.451,16.951-44.204c1.28-7.174,1.431-14.371,0.452-21.592c-0.923-6.218-8.24-8.21-6.91-15.206
	c-20.016,2.352-22.71,38.836-44.233,12.261c-12.19-15.052-11.68-55.617-30.286-63.381c0.762,1.537,0.945,3.131,0.548,4.782
	c-0.224,0.227-11.337-8.215-11.598-8.362c-9.235-5.22-0.021-14.981-1.327-21.655c-2.395-12.234-8.652-24.572-12.895-36.277
	c-3.527-9.731-5.744-31.359-13.969-24.077c0.942-4.838-0.888-7.958-5.49-9.36c6.121-0.564,7.74-4.194,4.86-10.89
	c6.351,5.975,2.244,6.658,9.54,5.94c-5.36,11.73,9.347,58.427,21.277,77.232c7.151,11.272,20.237,10.315,26.756,26.016
	c1.847,4.448,20.023,47.944,28.336,43.541c19.07-10.101-20.034-46.307-22.226-65.396c-6.588-57.37,27.011-1.069,49.626,1.318
	c-21.103-25.583-31.633-58.367-35.422-90.92C80.319,71.838,77.556,15.28,97.069,0.031c2.563-2.002,29.948,92.689,32.7,101.727
	c6.78,22.27,15.619,43.863,22.759,66.019c4.96,15.392,30.316,14.901,26.392-3.044c-12.677,10.113-3.087,1.282-5.579,9.63
	c0.028-0.03-2.731,0.213-2.395,0.103C165.321,173.25,173.286,164.607,174.33,163.112"/>
<g>
	<path fill="#3D5967" d="M842.396,267.351l-1.172-0.586h-0.879c-2.93-2.733-4.298-4.587-4.102-5.566
		c-19.336-22.069-45.117-33.105-77.344-33.105c-2.737,0-4.495,1.172-5.273,3.516c-16.214,8.4-32.13,13.184-47.754,14.355
		c-3.712,0.197-9.183,0.879-16.406,2.051c-15.82,4.102-38.379,22.952-67.676,56.543c-18.558,21.291-40.237,50.294-65.039,87.012
		c5.077,1.368,10.153,2.051,15.234,2.051c17.578,0,31.591-4.345,42.041-13.037c10.446-8.688,16.452-13.037,18.018-13.037
		c1.172,0,2.783,0.343,4.834,1.025c2.051,0.687,3.662,1.025,4.834,1.025c0.976,0,4.001-1.172,9.082-3.516l2.051,1.465v2.051
		c-27.933,35.156-45.899,63.867-53.906,86.133l-40.137,18.75h-4.102c0.192-5.663,11.911-23.337,35.156-53.027l-2.051-2.344
		c3.708-5.077,8.103-11.719,13.184-19.922c0-1.562,0.683-2.93,2.051-4.102c-1.172,0.586-11.526,2.637-31.055,6.152
		c-8.011,1.565-16.699,4.591-26.074,9.082c-18.36,29.297-34.277,51.855-47.754,67.676c6.052,17.774,9.082,35.646,9.082,53.613
		c0,50.977-19.093,94.578-57.275,130.811c-38.187,36.228-82.864,54.346-134.033,54.346c-48.829,0-85.94-14.553-111.328-43.652
		c-24.609-28.125-36.035-66.797-34.277-116.016c-0.782-0.975-5.374-4.102-13.77-9.375c-34.964-21.872-52.441-51.169-52.441-87.891
		c0-45.31,24.12-81.152,72.363-107.52c41.208-22.655,85.937-32.813,134.18-30.469c16.992-9.567,40.137-24.216,69.434-43.945
		c4.688-3.905,11.815-9.567,21.387-16.992c24.413-17.578,60.544-29.686,108.398-36.328c21.872-2.733,54.785-7.031,98.73-12.891
		c13.669-1.95,24.316-2.93,31.934-2.93c7.421,0,18.649,0.101,33.691,0.293c14.841,0,25.974,0,33.398,0
		c6.638,0,16.503,0.636,29.59,1.904c13.083,1.272,22.852,1.904,29.297,1.904c1.562,0,2.243,0.687,2.051,2.051
		C817.787,226.436,842.396,243.914,842.396,267.351z M295.424,334.441h-11.719c-40.626,0-78.419,10.647-113.379,31.934
		c-40.43,24.806-60.645,56.25-60.645,94.336c0,41.016,19.528,70.217,58.594,87.598h2.051c1.758-8.203,3.612-20.604,5.566-37.207
		c-8.597-17.382-12.891-33.984-12.891-49.805c0-22.266,8.496-43.456,25.488-63.574c16.013-18.942,35.056-32.03,57.129-39.258
		c8.981-2.733,17.871-5.566,26.66-8.496C281.654,346.26,289.368,341.083,295.424,334.441z M251.186,377.214
		c-20.118,4.688-38.04,16.406-53.76,35.156c-15.724,18.75-23.584,38.282-23.584,58.594c0,8.399,1.854,17.578,5.566,27.539
		c1.364-1.172,2.051-2.536,2.051-4.102c8.789-22.655,13.184-34.863,13.184-36.621c0-2.147-0.247-5.466-0.732-9.961
		c-0.489-4.491-0.732-7.81-0.732-9.961h1.465c0.39,4.495,1.562,8.597,3.516,12.305l2.051-1.172
		C214.857,420.867,231.85,396.944,251.186,377.214z M496.107,527.507V507c0-9.178-2.051-15.917-6.152-20.215l-0.586,0.879h-0.879
		c-59.376,55.078-137.109,82.617-233.203,82.617c-15.628,0-40.919-3.611-75.879-10.84c-0.586-0.586-1.368-0.879-2.344-0.879h-1.758
		c0,47.461,11.229,84.274,33.691,110.449c24.023,28.125,59.276,42.188,105.762,42.188c49.608,0,92.235-18.164,127.881-54.492
		C478.282,620.378,496.107,577.312,496.107,527.507z M278.725,562.664c-40.04-4.49-72.464-19.139-97.266-43.945l-2.051,5.273
		c-0.979,5.667-2.151,14.26-3.516,25.781c1.562,2.737,9.274,5.667,23.145,8.789c12.305,2.737,21.19,4.102,26.66,4.102H278.725z
		 M378.041,533.074h-0.586c-7.617,0-18.896,1.611-33.838,4.834s-26.221,4.834-33.838,4.834c-35.55,0-57.422-8.006-65.625-24.023
		c-1.758-5.076-4.98-12.497-9.668-22.266c-2.344-3.905-13.77-14.255-34.277-31.055c-2.54,1.565-5.713,7.571-9.521,18.018
		c-3.809,10.45-5.713,17.532-5.713,21.24c0,3.713,3.223,9.082,9.668,16.113c21.68,23.438,56.442,35.156,104.297,35.156
		C326.868,555.925,353.235,548.308,378.041,533.074z M380.092,417.058v-2.637c0-10.153-5.859-19.922-17.578-29.297
		c-14.456-11.719-34.57-17.578-60.352-17.578c-16.017,0-27.64,1.858-34.863,5.566c-8.597,4.298-21.387,18.018-38.379,41.162
		s-25.488,38.818-25.488,47.021c11.522,13.87,24.216,20.801,38.086,20.801c1.95,0,4.733-0.683,8.35-2.051
		c3.612-1.364,6.396-2.051,8.35-2.051c2.147,0,4.733,1.272,7.764,3.809c3.026,2.54,5.905,3.809,8.643,3.809
		c2.536,0,7.324-4.88,14.355-14.648c8.396-11.719,13.083-17.968,14.063-18.75C322.963,433.661,348.644,421.942,380.092,417.058z
		 M234.486,487.664v-0.586c-0.196-0.976-0.586-1.465-1.172-1.465h-0.293c-0.586,0.196-0.979,0.687-1.172,1.465v0.586l1.172,1.172
		h0.293L234.486,487.664z M238.881,488.835l-1.465-0.586l-0.586,0.586l0.586,1.465L238.881,488.835z M468.568,452.214l-11.133-10.84
		c-9.183,6.839-19.043,16.017-29.59,27.539c-1.368-0.39-2.051-1.562-2.051-3.516c0-2.93,8.007-12.108,24.023-27.539v-2.051
		c-11.329-7.421-22.366-11.133-33.105-11.133c-12.891,20.315-33.302,40.333-61.23,60.059
		c-20.508,14.456-46.976,22.756-79.395,24.902v16.406l-3.516-2.051v-16.406c-6.839-2.536-17.386-5.076-31.641-7.617
		c0,25.781,22.948,38.672,68.848,38.672c30.075,0,60.155-8.103,90.234-24.316C430.089,498.115,452.94,477.41,468.568,452.214z
		 M274.037,496.453c-0.196-0.192-0.489-0.879-0.879-2.051c-0.782,4.495-1.172,5.859-1.172,4.102v1.465
		C273.351,499.58,274.037,498.408,274.037,496.453z M349.037,482.097c-22.852,7.228-45.606,11.329-68.262,12.305
		c-1.954,1.565-2.833,3.616-2.637,6.152C317.2,500.554,340.834,494.402,349.037,482.097z M381.557,422.625
		c-18.946,0-37.989,6.152-57.129,18.457c-19.144,12.305-32.52,27.149-40.137,44.531h2.637c14.255,0,34.277-4.395,60.059-13.184
		C370.03,464.62,381.557,448.016,381.557,422.625z M417.592,398.601c0-12.694-4.788-21.094-14.355-25.195
		c-10.354-4.491-19.144-10.153-26.367-16.992c-2.737-2.93-7.132-7.031-13.184-12.305c-8.985-6.445-26.468-9.668-52.441-9.668
		c-5.667,0-12.794,5.081-21.387,15.234c60.352,5.273,94.14,27.347,101.367,66.211c2.536,0,6.345,0.196,11.426,0.586
		c5.077,0.394,8.886,0.586,11.426,0.586c0.976-0.586,1.465-1.657,1.465-3.223c0-1.562-0.782-2.243-2.344-2.051
		C416.127,409.637,417.592,405.243,417.592,398.601z M369.252,294.304c-3.712,1.369-11.865,5.763-24.463,13.184
		c-12.598,7.425-19.876,12.208-21.826,14.355c8.396,1.565,20.801,4.591,37.207,9.082
		C361.534,316.67,364.564,304.462,369.252,294.304z M672.768,248.015l-3.516-2.051c-4.102,0-17.578-1.268-40.43-3.809
		c-35.353-3.905-62.796-5.859-82.324-5.859c-37.696,0-87.598,14.259-149.707,42.773c-16.017,7.425-24.023,24.22-24.023,50.391
		c0,2.344,0.778,4.395,2.344,6.152c0.778,0.979,6.592,5.374,17.432,13.184c10.84,7.813,16.553,11.769,17.139,11.865
		c0.586,0.101,1.758,0.146,3.516,0.146l6.445-0.293c21.286-0.192,44.042-6.152,68.262-17.871
		c28.903-13.669,43.359-29.782,43.359-48.34c0-14.063-8.985-21.094-26.953-21.094c-14.845,0-28.711,2.248-41.602,6.738l-5.566,1.758
		c-0.586,0.586-1.368,1.076-2.344,1.465h-0.879c16.599-8.592,32.323-12.891,47.168-12.891c22.458,0,33.691,7.324,33.691,21.973
		c0,4.688-0.687,9.082-2.051,13.184c7.81-6.638,16.503-17.674,26.074-33.105h0.879c1.758,0,2.637,1.369,2.637,4.102
		c0,3.126-3.909,10.451-11.719,21.973c-17.972,26.761-35.938,46.192-53.906,58.301c-21.487,14.456-46.778,21.68-75.879,21.68v5.566
		c0,2.54,0.243,6.299,0.732,11.279c0.485,4.98,0.732,8.643,0.732,10.986c31.247-10.547,63.181-17.285,95.801-20.215
		c3.122-2.93,9.86-11.426,20.215-25.488c12.694-17.185,29.196-35.935,49.512-56.25c24.413-24.413,43.552-39.45,57.422-45.117
		c1.758-0.586,4.491-1.364,8.203-2.344C657.923,255.243,664.368,252.313,672.768,248.015z M383.607,531.902v-0.586
		c-0.196-0.975-0.586-1.561-1.172-1.758h-0.293c-0.782,0.394-1.172,0.979-1.172,1.758v0.586l1.172,1.172h0.293L383.607,531.902z
		 M387.709,448.992h-0.586v1.172L387.709,448.992z M426.381,255.632c-3.712,0-6.253,1.172-7.617,3.516L426.381,255.632z
		 M422.279,305.73l-1.172,1.172h-0.293l-1.172-1.172v-0.879c0.192-0.975,0.586-1.465,1.172-1.465h0.293
		c0.586,0.197,0.976,0.687,1.172,1.465V305.73z M512.807,391.57h-10.254c-11.329,0-26.66,2.151-45.996,6.445
		c-24.22,5.081-36.328,11.036-36.328,17.871c0,2.344,1.758,4.005,5.273,4.98c2.147,0.394,5.466,0.979,9.961,1.758
		c2.344,0.586,9.668,3.809,21.973,9.668c7.031-5.663,20.407-12.497,40.137-20.508c5.077-2.147,8.3-5.173,9.668-9.082h-4.98
		c-3.323,0-7.91,1.465-13.77,4.395s-10.45,4.495-13.77,4.688c0-4.294,5.37-8.496,16.113-12.598
		C498.058,396.651,505.382,394.11,512.807,391.57z M429.311,300.164l-1.172,1.172h-0.586l-1.172-1.172v-0.586
		c0.39-1.172,0.778-1.758,1.172-1.758h0.293c0.778,0.394,1.269,0.879,1.465,1.465V300.164z M431.361,253.289
		c-0.196-0.975-0.586-1.561-1.172-1.758h-0.586c-0.586,0.394-0.979,0.979-1.172,1.758v0.586c0.192,1.172,0.586,1.758,1.172,1.758
		h0.586c0.586-0.192,0.976-0.778,1.172-1.758V253.289z M438.979,250.066c-0.979,0-2.833,0.49-5.566,1.465
		C435.17,251.531,437.024,251.045,438.979,250.066z M436.928,294.597l-1.172,1.172h-0.586l-1.172-1.172v-0.586
		c0.192-0.975,0.586-1.561,1.172-1.758h0.293c0.778,0.394,1.172,0.979,1.172,1.758L436.928,294.597z M442.201,291.082l-1.172,1.172
		h-0.293l-1.172-1.172v-0.586c0.192-0.975,0.586-1.561,1.172-1.758h0.293c0.778,0.394,1.172,0.979,1.172,1.758V291.082z
		 M444.838,247.136l-0.586-0.293h-0.879l-0.879,0.293c0.39,0.586,0.778,1.369,1.172,2.344L444.838,247.136z M445.717,289.031
		l-1.172,1.172h-0.293l-1.172-1.172v-0.586c0.192-0.975,0.586-1.561,1.172-1.758h0.293c0.586,0.394,0.976,0.979,1.172,1.758V289.031
		z M450.111,285.808l-0.293,0.879h-1.172l-0.879-0.586l1.758-1.758l0.586,1.172V285.808z M449.818,246.257v-0.586l-0.293-0.293
		h-0.586l-0.293,0.293v0.293l0.586,1.465L449.818,246.257z M456.85,244.792v-0.586c-0.196-0.975-0.586-1.465-1.172-1.465h-0.293
		c-0.782,0.197-1.272,0.687-1.465,1.465v0.586l1.172,1.172h0.586L456.85,244.792z M494.057,421.453v-2.344
		c-10.157,2.93-19.825,8.496-29.004,16.699v2.051c3.122,3.126,6.152,5.47,9.082,7.031c1.562-1.562,4.102-3.905,7.617-7.031
		C484.485,434.151,488.587,428.68,494.057,421.453z"/>
	<path fill="#3D5967" d="M748.354,509.05c-22.852,22.852-38.965,37.793-48.34,44.824c-20.901,15.628-40.92,23.438-60.059,23.438
		c-9.375,0-18.654-2.637-27.832-7.91c-12.305-7.031-18.457-13.572-18.457-19.629c0-20.896,0.687-33.787,2.051-38.672
		c2.344-4.294,5.076-9.375,8.203-15.234c0.975-1.95,2.439-4.98,4.395-9.082c8.203-16.406,22.705-31.201,43.506-44.385
		s40.283-19.775,58.447-19.775h12.598c4.88,0.394,8.981,3.524,12.305,9.394c2.732,4.898,4.102,10.084,4.102,15.563
		c0,21.332-13.477,39.437-40.43,54.313c-13.674,7.636-36.525,16.246-68.555,25.837c-2.344,6.069-3.516,12.039-3.516,17.907
		c0,10.181,6.445,15.267,19.336,15.267c17.381,0,35.449-5.694,54.199-17.088c7.42-4.716,22.751-16.302,45.996-34.768H748.354z
		 M715.834,460.71c0-0.976-0.101-2.197-0.293-3.662c-0.197-1.465-0.293-2.587-0.293-3.369c-1.565-1.364-4.395-2.051-8.496-2.051
		c-5.667,0-10.254,1.172-13.77,3.516c-21.487,14.063-38.672,32.034-51.563,53.906v4.688c11.325,0,26.267-6.052,44.824-18.164
		C705.969,482.683,715.834,471.065,715.834,460.71z M685.365,560.613v-4.102c-5.273,0-12.598,1.758-21.973,5.273
		c-14.26,5.081-21.584,7.718-21.973,7.91v4.102C653.331,573.796,667.979,569.402,685.365,560.613z M724.916,437.273
		c0-3.708-2.151-7.421-6.445-11.133h-8.789c-8.789,0-19.144,3.809-31.055,11.426c-12.891,8.203-19.336,16.31-19.336,24.316
		l4.102-0.586c20.114-8.981,39.939-14.452,59.473-16.406C724.229,443.329,724.916,440.789,724.916,437.273z"/>
	<path fill="#3D5967" d="M896.596,509.05c-22.852,22.852-38.965,37.793-48.34,44.824c-20.901,15.628-40.92,23.438-60.059,23.438
		c-9.375,0-18.654-2.637-27.832-7.91c-12.305-7.031-18.457-13.572-18.457-19.629c0-20.896,0.687-33.787,2.051-38.672
		c2.344-4.294,5.076-9.375,8.203-15.234c0.975-1.95,2.439-4.98,4.395-9.082c8.203-16.406,22.705-31.201,43.506-44.385
		s40.283-19.775,58.447-19.775h12.598c4.88,0.394,8.981,3.524,12.305,9.394c2.732,4.898,4.102,10.084,4.102,15.563
		c0,21.332-13.477,39.437-40.43,54.313c-13.674,7.636-36.525,16.246-68.555,25.837c-2.344,6.069-3.516,12.039-3.516,17.907
		c0,10.181,6.445,15.267,19.336,15.267c17.381,0,35.449-5.694,54.199-17.088c7.42-4.716,22.751-16.302,45.996-34.768H896.596z
		 M864.076,460.71c0-0.976-0.101-2.197-0.293-3.662c-0.197-1.465-0.293-2.587-0.293-3.369c-1.565-1.364-4.395-2.051-8.496-2.051
		c-5.667,0-10.254,1.172-13.77,3.516c-21.487,14.063-38.672,32.034-51.563,53.906v4.688c11.325,0,26.267-6.052,44.824-18.164
		C854.211,482.683,864.076,471.065,864.076,460.71z M833.607,560.613v-4.102c-5.273,0-12.598,1.758-21.973,5.273
		c-14.26,5.081-21.584,7.718-21.973,7.91v4.102C801.573,573.796,816.222,569.402,833.607,560.613z M873.158,437.273
		c0-3.708-2.151-7.421-6.445-11.133h-8.789c-8.789,0-19.144,3.809-31.055,11.426c-12.891,8.203-19.336,16.31-19.336,24.316
		l4.102-0.586c20.114-8.981,39.939-14.452,59.473-16.406C872.472,443.329,873.158,440.789,873.158,437.273z"/>
</g>
</svg>
