<svg xmlns="http://www.w3.org/2000/svg">

    <symbol id="icon-menu" viewBox="0 0 1024 1024">
        <path d="M942.6,192.6H81.4c-54.4,0-78.9,30.8-78.9,68.4c0,37.6,24.5,68.4,78.9,68.4h861.2
                 c54.4,0,78.9-30.8,78.9-68.4C1021.5,223.4,997,192.6,942.6,192.6z"/>
        <path  d="M942.6,443.6H81.4C27,443.6,2.5,474.4,2.5,512s24.5,68.4,78.9,68.4h861.2c54.4,0,78.9-30.8,78.9-68.4
                  S997,443.6,942.6,443.6z"/>
        <path d="M942.6,694.5H81.4c-54.4,0-78.9,30.8-78.9,68.4c0,37.6,24.5,68.4,78.9,68.4h861.2
                 c54.4,0,78.9-30.8,78.9-68.4C1021.5,725.3,997,694.5,942.6,694.5z"/>
    </symbol>

    <symbol id="icon-close" viewBox="0 0 1024 1024">
        <path d="M634,511.5l364.4-364.4c33.5-33.5,33.5-87.9,0-121.4c-33.5-33.5-87.9-33.5-121.5,0L512.5,390L148.1,25.7
                 c-33.5-33.6-87.9-33.6-121.5,0c-33.5,33.5-33.5,87.9,0,121.4L391,511.5L26.6,875.9c-33.5,33.5-33.5,87.9,0,121.4
                 c33.5,33.6,87.9,33.6,121.5,0L512.5,633l364.4,364.3c33.5,33.6,87.9,33.6,121.5,0c33.5-33.5,33.5-87.9,0-121.4L634,511.5z" />
    </symbol>

    <symbol id="icon-search" viewBox="0 0 1024 1024">
        <path d="M994.6,854.5L740,600.3c-18.8-18.8-43.4-28.4-68.1-28.8c95.5-142.1,80.5-336.7-45.2-462.2c-142.8-142.5-375.2-142.5-518,0
                 c-142.8,142.6-142.8,374.5,0,517c125.7,125.4,320.7,140.5,463,45.1c0.4,24.7,10,49.2,28.8,68l254.6,254.1
                 c38.5,38.4,101,38.4,139.5,0C1033.1,955.2,1033.1,892.9,994.6,854.5z M546.9,546.8c-98.9,98.7-259.8,98.7-358.6,0
                 c-98.9-98.7-98.9-259.2,0-357.9c98.9-98.7,259.8-98.7,358.6,0C645.8,287.6,645.8,448.2,546.9,546.8z" />
    </symbol>

    <symbol id="icon-caret-up" viewBox="0 0 1024 1024">
        <path d="M512.5,205c18.3,0,36.7,7.3,50.6,22l439.4,462.4c27.9,29.4,27.9,77.1,0,106.5c-27.9,29.4-73.2,29.4-101.2,0
                 L512.5,386.8L123.7,795.9c-27.9,29.4-73.3,29.4-101.2,0c-28-29.4-28-77.1,0-106.5L461.9,227C475.9,212.4,494.2,205,512.5,205z" />
    </symbol>

    <symbol id="icon-caret-right" viewBox="0 0 1024 1024">
        <path d="M819,511.5c0,18.3-7.3,36.7-22,50.6l-462.4,439.4c-29.4,27.9-77.1,27.9-106.5,0c-29.4-27.9-29.4-73.2,0-101.2l409.2-388.9
                 L228.1,122.7c-29.4-27.9-29.4-73.3,0-101.2c29.4-28,77.1-28,106.5,0l462.3,439.4C811.6,474.9,819,493.2,819,511.5z" />
    </symbol>

    <symbol id="icon-caret-down" viewBox="0 0 1024 1024">
        <path d="M512.5,818c-18.3,0-36.7-7.3-50.6-22L22.5,333.5c-27.9-29.4-27.9-77.1,0-106.5c27.9-29.4,73.2-29.4,101.2,0
                 l388.9,409.2l388.8-409.1c27.9-29.4,73.3-29.4,101.2,0c28,29.4,28,77.1,0,106.5L563.1,795.9C549.1,810.6,530.8,818,512.5,818z" />
    </symbol>

    <symbol id="icon-caret-left" viewBox="0 0 1024 1024">
        <path d="M206,511.5c0-18.3,7.3-36.7,22-50.6L690.4,21.4c29.4-27.9,77.1-27.9,106.5,0c29.4,27.9,29.4,73.2,0,101.2
                 L387.8,511.5l409.1,388.8c29.4,27.9,29.4,73.3,0,101.2c-29.4,28-77.1,28-106.5,0L228.1,562.1C213.4,548.1,206,529.8,206,511.5z" />
    </symbol>

    <symbol id="icon-totop" viewBox="0 0 1024 1024">
        <path d="M512.5,205c18.3,0,36.7,7.3,50.6,22l439.4,462.4c27.9,29.4,27.9,77.1,0,106.5c-27.9,29.4-73.2,29.4-101.2,0
                 L512.5,386.8L123.7,795.9c-27.9,29.4-73.3,29.4-101.2,0c-28-29.4-28-77.1,0-106.5L461.9,227C475.9,212.4,494.2,205,512.5,205z" />
    </symbol>

    <symbol id="icon-download" viewBox="0 0 1024 1024">
        <path d="M480.2,824c1.1,1.1,2.2,2.1,3.4,3c0.5,0.5,1.1,0.8,1.6,1.2c0.7,0.5,1.3,1,2,1.5c0.7,0.4,1.3,0.8,2,1.2
                 c0.6,0.4,1.2,0.8,1.9,1.1c0.7,0.4,1.4,0.7,2.1,1c0.7,0.3,1.3,0.6,2,0.9c0.7,0.3,1.4,0.5,2.1,0.8c0.7,0.3,1.4,0.6,2.2,0.8
                 c0.7,0.2,1.4,0.4,2.1,0.6c0.8,0.2,1.5,0.4,2.3,0.6c0.8,0.2,1.6,0.3,2.5,0.4c0.7,0.1,1.3,0.3,2,0.3c1.5,0.2,3.1,0.3,4.6,0.3
                 c1.5,0,3.1-0.1,4.6-0.3c0.7,0,1.4-0.2,2.1-0.3c0.8-0.1,1.6-0.2,2.4-0.4c0.8-0.2,1.6-0.4,2.3-0.6c0.7-0.2,1.4-0.4,2.1-0.6
                 c0.8-0.2,1.5-0.5,2.2-0.8c0.7-0.3,1.4-0.5,2-0.8c0.7-0.3,1.4-0.6,2-1c0.7-0.3,1.4-0.6,2.1-1c0.6-0.4,1.3-0.8,1.9-1.1
                 c0.7-0.4,1.4-0.8,2-1.2c0.7-0.5,1.3-1,2-1.5c0.6-0.5,1.1-0.8,1.7-1.3c1.1-0.9,2.2-1.9,3.2-2.9c0-0.1,0.1-0.1,0.2-0.1l216.4-216.4
                 c18.1-18.1,18.1-47.5,0-65.6c-18.1-18.1-47.5-18.1-65.6,0L559.4,679.3V49.4C559.4,23.8,538.6,3,513,3c-25.6,0-46.4,20.8-46.4,46.4
                 v629.9L329.4,542c-18.1-18.1-47.5-18.1-65.6,0c-18.1,18.1-18.1,47.4,0,65.6L480.2,824z" />
        <path d="M976.6,930.2H49.4C23.8,930.2,3,951,3,976.6c0,25.6,20.8,46.4,46.4,46.4h927.3c25.6,0,46.4-20.8,46.4-46.4
                 C1023,951,1002.2,930.2,976.6,930.2z"/>
    </symbol>

    <symbol id="icon-info" viewBox="0 0 1024 1024">
        <path d="M418.909,233.725H605.11c12.595,0,23.5-4.602,32.724-13.816c9.194-9.205,13.809-20.118,13.809-32.725
                 V47.548c0-12.603-4.614-23.508-13.826-32.732C628.607,5.616,617.688,1,605.088,1H418.906c-12.6,0-23.507,4.616-32.724,13.816
                 c-9.209,9.214-13.816,20.129-13.816,32.732v139.636c0,12.607,4.607,23.52,13.816,32.725
                 C395.399,229.123,406.307,233.725,418.909,233.725z"/>
        <path d="M730.903,852.629c-9.204-9.214-20.116-13.825-32.726-13.825H651.63V419.903
                 c0-12.602-4.604-23.508-13.809-32.72c-9.221-9.212-20.134-13.821-32.726-13.821H325.827c-12.607,0-23.513,4.608-32.724,13.821
                 c-9.216,9.212-13.816,20.118-13.816,32.72v93.095c0,12.597,4.602,23.512,13.816,32.719c9.209,9.224,20.117,13.828,32.724,13.828
                 h46.55v279.264h-46.55c-12.607,0-23.513,4.609-32.724,13.823c-9.216,9.206-13.816,20.117-13.816,32.724v93.095
                 c0,12.603,4.602,23.515,13.816,32.741c9.209,9.194,20.117,13.809,32.724,13.809h372.351c12.606,0,23.52-4.614,32.726-13.809
                 c9.204-9.224,13.809-20.137,13.809-32.741v-93.095C744.712,872.749,740.135,861.833,730.903,852.629z"/>
    </symbol>

    <symbol id="icon-checked" viewBox="0 0 1024 1024">
        <path d="M1005.5 320.8L437.9 886c-12.4 13.9-27.8 20.1-46.3 18.5-17 1.6-31.7-4.6-44-18.5l-329-326.7C6.2 545.5 0 530.8 0 515.4c0-20.1 6.2-35.5 18.5-46.3l88-92.7c12.3-10.8 27.8-17 46.3-18.5 17 1.6 31.6 7.7 44 18.5l194.6 199.2 435.5-437.9c12.3-10.8 27-17 44-18.5 18.5 1.6 34 7.7 46.3 18.5l88 92.7c12.3 10.8 18.5 25.5 18.5 44 .3 17-5.9 32.5-18.2 46.4z" />
    </symbol>
</svg>
